<svg id="svg" version="1.1" xmlns="http://www.w3.org/2000/svg" xmlns:xlink="http://www.w3.org/1999/xlink" width="400" height="400" viewBox="0, 0, 400,400"><g id="svgg"><path id="path0" d="M114.000 84.242 C 97.849 87.227,90.089 106.380,99.565 119.873 C 111.010 136.169,136.503 130.905,140.598 111.400 C 143.914 95.608,129.904 81.303,114.000 84.242 M170.667 113.067 C 170.520 113.213,170.400 113.709,170.400 114.168 C 170.400 114.971,169.195 118.561,167.875 121.695 C 165.101 128.278,158.029 135.319,150.800 138.695 C 145.139 141.338,145.226 141.330,120.600 141.618 C 93.995 141.929,93.618 141.989,88.969 146.693 C 84.329 151.387,84.022 152.975,84.010 172.300 L 84.000 188.000 118.595 188.000 L 153.189 188.000 153.295 174.725 L 153.400 161.451 157.200 160.001 C 173.516 153.778,187.699 137.914,191.532 121.600 C 192.352 118.112,192.491 117.378,192.771 115.100 L 193.053 112.800 181.993 112.800 C 175.910 112.800,170.813 112.920,170.667 113.067 M261.013 119.240 C 256.148 119.623,247.794 120.945,244.400 121.870 C 243.190 122.200,241.660 122.612,241.000 122.786 C 222.260 127.739,199.983 142.886,187.244 159.338 C 173.796 176.704,166.872 195.614,165.361 219.100 L 165.097 223.200 176.541 223.200 L 187.985 223.200 188.170 222.300 C 188.271 221.805,188.461 219.420,188.591 217.000 C 188.836 212.454,189.098 210.727,190.470 204.600 C 194.457 186.809,206.408 168.345,220.276 158.551 C 221.774 157.493,223.090 156.509,223.200 156.365 C 224.509 154.647,237.578 147.742,242.800 146.010 C 244.230 145.536,245.760 144.994,246.200 144.807 C 246.640 144.620,247.450 144.354,248.000 144.215 C 248.550 144.077,249.900 143.726,251.000 143.435 C 255.590 142.224,262.950 141.200,267.070 141.200 L 269.613 141.200 269.506 130.100 L 269.400 119.000 267.400 118.948 C 266.300 118.919,263.426 119.051,261.013 119.240 M265.400 165.454 C 258.396 166.339,256.689 166.669,252.524 167.941 C 230.202 174.758,212.000 198.255,212.000 220.252 L 212.000 223.200 223.341 223.200 L 234.681 223.200 234.927 220.100 C 236.261 203.278,249.357 190.124,266.400 188.488 L 269.400 188.200 269.400 176.800 L 269.400 165.400 268.000 165.351 C 267.230 165.324,266.060 165.370,265.400 165.454 M274.800 212.890 C 256.534 219.282,253.209 243.764,269.170 254.343 C 288.723 267.304,312.311 246.013,302.169 224.557 C 297.578 214.845,284.791 209.394,274.800 212.890 M207.473 241.460 C 206.634 242.299,207.635 247.999,209.710 254.200 C 214.767 269.315,229.318 284.146,243.902 289.049 C 246.974 290.082,246.778 289.157,246.894 303.144 L 247.000 315.800 281.521 315.902 L 316.041 316.004 315.921 299.502 L 315.800 283.000 314.320 279.972 C 312.636 276.529,310.138 273.810,307.402 272.444 C 303.435 270.462,302.759 270.410,281.200 270.405 C 260.198 270.400,257.995 270.258,252.977 268.583 C 242.606 265.123,233.816 256.096,230.402 245.400 C 229.911 243.860,229.374 242.330,229.211 242.000 C 228.896 241.365,208.085 240.848,207.473 241.460 " stroke="none" fill="#fafafb" fill-rule="evenodd"></path><path id="path1" d="M0.000 200.000 L 0.000 400.000 200.000 400.000 L 400.000 400.000 400.000 200.000 L 400.000 0.000 200.000 0.000 L 0.000 0.000 0.000 200.000 M123.565 83.416 C 135.231 86.166,143.532 97.970,141.964 109.579 C 141.739 111.241,141.385 112.913,141.178 113.295 C 140.970 113.677,140.800 114.236,140.800 114.538 C 140.800 116.997,134.965 124.303,130.800 127.059 C 125.289 130.706,116.514 131.797,110.891 129.536 C 91.799 121.856,88.536 99.525,104.692 87.107 C 109.291 83.572,117.453 81.976,123.565 83.416 M193.100 112.252 C 193.808 112.442,194.000 112.782,194.000 113.841 C 194.000 115.594,192.658 121.554,191.961 122.895 C 191.762 123.277,191.600 123.954,191.600 124.400 C 191.600 124.846,191.441 125.523,191.247 125.905 C 191.052 126.287,190.714 127.050,190.495 127.600 C 188.428 132.797,184.851 139.188,182.241 142.347 C 177.752 147.783,169.255 155.600,167.836 155.600 C 167.676 155.600,166.792 156.103,165.872 156.717 C 163.688 158.177,155.709 162.000,154.847 162.000 C 154.098 162.000,154.000 163.588,154.000 175.753 C 154.000 184.932,153.873 188.367,153.520 188.720 C 152.824 189.416,83.976 189.416,83.280 188.720 C 82.627 188.067,82.601 158.178,83.250 155.120 C 84.087 151.178,88.983 144.000,90.834 144.000 C 91.004 144.000,91.388 143.775,91.687 143.500 C 92.587 142.672,93.945 142.000,94.715 142.000 C 95.114 142.000,95.665 141.775,95.940 141.500 C 96.322 141.117,101.863 140.942,119.520 140.752 C 134.217 140.593,143.036 140.348,143.800 140.076 C 144.460 139.841,145.810 139.421,146.800 139.142 C 157.089 136.245,166.429 126.374,169.017 115.664 C 169.551 113.451,169.932 112.644,170.563 112.389 C 171.513 112.005,191.719 111.882,193.100 112.252 M270.033 118.000 C 270.619 118.000,270.509 141.331,269.920 141.920 C 269.621 142.219,268.140 142.400,265.990 142.400 C 262.758 142.400,256.779 143.111,252.200 144.039 C 251.100 144.262,249.613 144.544,248.896 144.666 C 248.179 144.788,247.494 145.049,247.373 145.244 C 247.252 145.440,246.801 145.600,246.371 145.600 C 245.941 145.600,245.277 145.759,244.895 145.953 C 244.513 146.148,243.705 146.508,243.100 146.753 C 242.495 146.999,241.595 147.367,241.100 147.572 C 235.858 149.736,225.035 155.676,222.442 157.811 C 216.525 162.684,210.026 168.804,207.992 171.418 C 201.864 179.297,199.146 183.657,196.408 190.000 C 194.344 194.781,194.121 195.321,193.607 196.800 C 193.339 197.570,192.982 198.560,192.815 199.000 C 192.100 200.880,191.600 202.711,191.600 203.448 C 191.600 203.884,191.438 204.411,191.241 204.620 C 191.044 204.829,190.779 205.720,190.653 206.600 C 190.526 207.480,190.221 209.370,189.973 210.800 C 189.726 212.230,189.441 215.586,189.339 218.258 C 189.084 224.997,190.223 224.463,176.434 224.318 C 163.612 224.184,164.411 224.431,164.414 220.600 C 164.427 207.232,169.288 187.586,175.302 176.600 C 175.543 176.160,176.220 174.900,176.807 173.800 C 180.193 167.451,184.922 160.358,187.752 157.381 C 188.579 156.512,189.535 155.333,189.877 154.762 C 190.779 153.256,197.961 146.289,203.444 141.600 C 205.339 139.980,208.837 137.422,211.200 135.930 C 212.410 135.165,214.570 133.797,216.000 132.889 C 217.430 131.981,220.940 130.073,223.800 128.649 C 228.593 126.262,230.728 125.378,235.600 123.758 C 236.590 123.429,237.760 123.014,238.200 122.835 C 239.896 122.147,241.892 121.600,242.705 121.600 C 243.171 121.600,243.664 121.420,243.800 121.200 C 243.936 120.980,244.429 120.800,244.895 120.800 C 245.362 120.800,246.296 120.634,246.972 120.431 C 251.423 119.092,266.971 117.288,269.133 117.859 C 269.426 117.937,269.831 118.000,270.033 118.000 M269.906 164.733 C 270.300 164.983,270.389 167.715,270.306 177.027 L 270.200 189.000 266.800 189.271 C 262.574 189.608,260.458 189.983,260.173 190.444 C 260.052 190.640,259.601 190.800,259.171 190.800 C 258.741 190.800,258.077 190.957,257.695 191.149 C 257.313 191.340,255.830 192.082,254.400 192.798 C 247.639 196.179,242.396 201.540,239.051 208.493 C 237.317 212.097,236.207 216.115,235.808 220.231 C 235.390 224.528,236.429 224.183,223.493 224.317 C 209.441 224.462,210.632 225.146,211.409 217.383 C 212.496 206.533,217.045 193.967,221.179 190.400 C 221.306 190.290,222.121 189.154,222.989 187.875 C 225.145 184.699,228.315 181.449,232.600 178.022 C 234.580 176.438,236.517 174.885,236.905 174.571 C 237.292 174.257,237.710 174.000,237.833 174.000 C 237.955 174.000,238.808 173.485,239.728 172.855 C 241.830 171.416,248.043 168.400,248.906 168.400 C 249.262 168.400,249.664 168.220,249.800 168.000 C 249.936 167.780,250.399 167.600,250.829 167.600 C 251.259 167.600,251.923 167.430,252.305 167.223 C 255.188 165.660,268.417 163.788,269.906 164.733 M285.600 211.413 C 304.991 214.523,312.529 238.696,298.338 252.261 C 296.207 254.298,291.741 257.200,290.738 257.200 C 290.332 257.200,290.000 257.380,290.000 257.600 C 290.000 257.820,289.496 258.000,288.880 258.000 C 288.264 258.000,287.563 258.197,287.323 258.437 C 286.724 259.036,276.485 259.045,275.886 258.446 C 275.641 258.201,275.037 258.000,274.544 258.000 C 274.051 258.000,273.536 257.820,273.400 257.600 C 273.264 257.380,272.888 257.200,272.563 257.200 C 271.457 257.200,266.467 253.573,264.116 251.061 C 250.331 236.324,260.582 211.908,281.000 210.845 C 281.440 210.822,283.510 211.077,285.600 211.413 M229.885 240.900 C 230.096 241.175,230.594 242.660,230.993 244.200 C 233.847 255.221,243.525 265.009,254.600 268.074 C 257.669 268.924,258.717 268.970,280.200 269.208 C 292.520 269.344,303.050 269.592,303.600 269.759 C 309.818 271.643,315.009 276.958,316.602 283.072 C 317.391 286.100,317.495 315.945,316.720 316.720 C 316.211 317.229,247.943 317.460,246.633 316.957 C 246.074 316.743,246.000 315.219,246.000 303.929 C 246.000 290.509,245.935 290.000,244.223 290.000 C 243.874 290.000,243.277 289.840,242.895 289.643 C 242.513 289.447,240.310 288.392,238.000 287.299 C 231.368 284.161,228.234 281.841,222.196 275.600 C 215.382 268.557,213.309 265.352,209.513 256.000 C 209.289 255.450,208.948 254.687,208.753 254.305 C 208.559 253.923,208.400 253.259,208.400 252.829 C 208.400 252.399,208.240 251.948,208.044 251.827 C 207.849 251.706,207.588 251.021,207.466 250.304 C 207.344 249.587,207.052 248.100,206.816 247.000 C 206.119 243.749,205.884 241.678,206.138 241.019 C 206.456 240.187,229.252 240.074,229.885 240.900 " stroke="none" fill="#6c3cec" fill-rule="evenodd"></path><path id="path2" d="M117.111 83.493 C 118.051 83.578,119.491 83.577,120.311 83.491 C 121.130 83.405,120.360 83.336,118.600 83.337 C 116.840 83.339,116.170 83.409,117.111 83.493 M134.400 90.200 C 135.595 91.410,136.663 92.400,136.773 92.400 C 136.883 92.400,135.995 91.410,134.800 90.200 C 133.605 88.990,132.537 88.000,132.427 88.000 C 132.317 88.000,133.205 88.990,134.400 90.200 M101.578 90.300 L 100.200 91.800 101.700 90.422 C 102.525 89.663,103.200 88.988,103.200 88.922 C 103.200 88.616,102.862 88.904,101.578 90.300 M94.901 104.200 C 94.905 105.080,94.987 105.393,95.083 104.895 C 95.179 104.398,95.175 103.678,95.075 103.295 C 94.975 102.913,94.896 103.320,94.901 104.200 M94.909 108.800 C 94.909 109.790,94.987 110.195,95.082 109.700 C 95.178 109.205,95.178 108.395,95.082 107.900 C 94.987 107.405,94.909 107.810,94.909 108.800 M261.905 118.683 C 262.402 118.779,263.122 118.775,263.505 118.675 C 263.887 118.575,263.480 118.496,262.600 118.501 C 261.720 118.505,261.407 118.587,261.905 118.683 M269.800 130.000 C 269.800 136.338,269.935 141.440,270.100 141.338 C 270.265 141.236,270.400 136.134,270.400 130.000 C 270.400 123.866,270.265 118.764,270.100 118.662 C 269.935 118.560,269.800 123.662,269.800 130.000 M134.981 122.900 L 133.400 124.600 135.100 123.019 C 136.681 121.548,136.984 121.200,136.681 121.200 C 136.616 121.200,135.851 121.965,134.981 122.900 M117.507 130.290 C 118.226 130.379,119.306 130.377,119.907 130.286 C 120.508 130.195,119.920 130.122,118.600 130.124 C 117.280 130.126,116.788 130.201,117.507 130.290 M98.305 141.483 C 98.802 141.579,99.522 141.575,99.905 141.475 C 100.287 141.375,99.880 141.296,99.000 141.301 C 98.120 141.305,97.807 141.387,98.305 141.483 M263.900 141.882 C 264.395 141.978,265.205 141.978,265.700 141.882 C 266.195 141.787,265.790 141.709,264.800 141.709 C 263.810 141.709,263.405 141.787,263.900 141.882 M260.500 142.276 C 260.885 142.376,261.515 142.376,261.900 142.276 C 262.285 142.175,261.970 142.093,261.200 142.093 C 260.430 142.093,260.115 142.175,260.500 142.276 M194.388 150.300 L 191.800 153.000 194.500 150.412 C 195.985 148.988,197.200 147.773,197.200 147.712 C 197.200 147.417,196.793 147.792,194.388 150.300 M83.382 172.200 C 83.382 181.000,83.435 184.543,83.500 180.073 C 83.564 175.604,83.564 168.404,83.499 164.073 C 83.435 159.743,83.382 163.400,83.382 172.200 M153.791 162.100 C 153.481 162.945,153.381 188.380,153.689 188.071 C 153.953 187.807,154.347 161.599,154.087 161.600 C 154.026 161.600,153.892 161.825,153.791 162.100 M211.986 166.300 L 209.800 168.600 212.100 166.414 C 213.365 165.211,214.400 164.176,214.400 164.114 C 214.400 163.817,214.018 164.163,211.986 166.300 M270.000 176.520 L 270.199 188.200 270.306 176.826 C 270.365 170.571,270.275 165.315,270.106 165.146 C 269.938 164.977,269.890 170.095,270.000 176.520 M242.700 171.429 C 241.205 172.240,241.296 172.578,242.800 171.800 C 243.460 171.459,244.000 171.094,244.000 170.990 C 244.000 170.732,243.957 170.747,242.700 171.429 M101.100 188.700 C 110.615 188.760,126.185 188.760,135.700 188.700 C 145.215 188.640,137.430 188.591,118.400 188.591 C 99.370 188.591,91.585 188.640,101.100 188.700 M244.778 199.100 L 243.400 200.600 244.900 199.222 C 246.296 197.938,246.584 197.600,246.278 197.600 C 246.212 197.600,245.537 198.275,244.778 199.100 M164.893 216.400 C 164.893 217.170,164.975 217.485,165.076 217.100 C 165.176 216.715,165.176 216.085,165.076 215.700 C 164.975 215.315,164.893 215.630,164.893 216.400 M188.893 217.200 C 188.893 217.970,188.975 218.285,189.076 217.900 C 189.176 217.515,189.176 216.885,189.076 216.500 C 188.975 216.115,188.893 216.430,188.893 217.200 M298.000 218.200 C 299.195 219.410,300.263 220.400,300.373 220.400 C 300.483 220.400,299.595 219.410,298.400 218.200 C 297.205 216.990,296.137 216.000,296.027 216.000 C 295.917 216.000,296.805 216.990,298.000 218.200 M188.493 222.000 C 188.493 222.770,188.575 223.085,188.676 222.700 C 188.776 222.315,188.776 221.685,188.676 221.300 C 188.575 220.915,188.493 221.230,188.493 222.000 M304.901 232.600 C 304.905 233.480,304.987 233.793,305.083 233.295 C 305.179 232.798,305.175 232.078,305.075 231.695 C 304.975 231.313,304.896 231.720,304.901 232.600 M304.901 237.400 C 304.905 238.280,304.987 238.593,305.083 238.095 C 305.179 237.598,305.175 236.878,305.075 236.495 C 304.975 236.113,304.896 236.520,304.901 237.400 M298.400 251.400 C 297.428 252.390,296.723 253.200,296.833 253.200 C 296.943 253.200,297.828 252.390,298.800 251.400 C 299.772 250.410,300.477 249.600,300.367 249.600 C 300.257 249.600,299.372 250.410,298.400 251.400 M239.400 259.600 C 240.483 260.700,241.460 261.600,241.570 261.600 C 241.680 261.600,240.883 260.700,239.800 259.600 C 238.717 258.500,237.740 257.600,237.630 257.600 C 237.520 257.600,238.317 258.500,239.400 259.600 M278.705 258.683 C 279.202 258.779,279.922 258.775,280.305 258.675 C 280.687 258.575,280.280 258.496,279.400 258.501 C 278.520 258.505,278.207 258.587,278.705 258.683 M282.700 258.682 C 283.195 258.778,284.005 258.778,284.500 258.682 C 284.995 258.587,284.590 258.509,283.600 258.509 C 282.610 258.509,282.205 258.587,282.700 258.682 M271.128 269.900 C 276.698 269.963,285.698 269.962,291.128 269.900 C 296.558 269.837,292.000 269.785,281.000 269.786 C 270.000 269.786,265.558 269.837,271.128 269.900 M316.582 300.400 C 316.582 309.090,316.635 312.645,316.700 308.300 C 316.764 303.955,316.764 296.845,316.700 292.500 C 316.635 288.155,316.582 291.710,316.582 300.400 M246.178 303.000 C 246.178 309.820,246.232 312.666,246.299 309.325 C 246.366 305.984,246.366 300.404,246.299 296.925 C 246.233 293.446,246.178 296.180,246.178 303.000 M246.742 316.502 C 246.908 316.668,262.604 316.758,281.622 316.702 L 316.200 316.600 281.320 316.400 C 262.136 316.290,246.576 316.336,246.742 316.502 " stroke="none" fill="#a085f1" fill-rule="evenodd"></path><path id="path3" d="M112.509 84.175 C 103.263 86.415,95.803 95.171,95.109 104.600 C 94.897 107.471,95.020 107.066,95.961 101.800 C 98.947 85.079,121.087 78.148,133.745 89.972 C 144.751 100.252,143.194 117.753,130.538 126.015 C 116.661 135.074,97.730 126.188,95.590 109.611 L 95.305 107.400 95.252 109.258 C 95.094 114.887,99.727 122.458,105.693 126.319 C 119.095 134.992,136.802 127.834,140.821 112.119 C 145.077 95.479,129.462 80.067,112.509 84.175 M170.661 112.700 C 170.559 112.865,175.556 112.950,181.766 112.888 L 193.056 112.776 192.760 115.088 C 192.598 116.360,192.268 118.300,192.029 119.400 C 191.253 122.960,191.167 123.862,191.779 122.005 C 192.542 119.693,193.657 113.217,193.372 112.755 C 193.107 112.326,170.926 112.273,170.661 112.700 M170.049 114.000 C 170.016 114.330,169.889 115.050,169.767 115.600 C 169.575 116.464,169.607 116.503,169.999 115.888 C 170.248 115.497,170.375 114.777,170.281 114.288 C 170.186 113.800,170.082 113.670,170.049 114.000 M262.400 118.655 C 257.024 119.045,246.178 120.712,246.557 121.090 C 246.650 121.183,248.874 120.895,251.498 120.450 C 256.636 119.577,268.104 118.601,269.033 118.957 C 269.503 119.138,269.600 121.051,269.600 130.187 L 269.600 141.200 267.100 141.203 C 264.544 141.206,256.834 142.112,253.600 142.789 C 252.610 142.996,251.635 143.173,251.433 143.183 C 251.232 143.192,251.163 143.296,251.281 143.414 C 251.399 143.532,252.824 143.365,254.448 143.043 C 257.494 142.438,264.284 141.648,267.800 141.490 L 269.800 141.400 269.800 130.000 L 269.800 118.600 267.000 118.562 C 265.460 118.541,263.390 118.583,262.400 118.655 M166.506 123.517 C 164.752 126.694,163.629 128.150,160.295 131.570 C 158.090 133.831,157.815 134.221,159.139 133.205 C 162.021 130.994,168.643 122.110,167.937 121.403 C 167.843 121.310,167.199 122.261,166.506 123.517 M244.200 121.600 C 243.696 121.817,243.622 121.944,244.000 121.944 C 244.330 121.944,244.960 121.789,245.400 121.600 C 245.904 121.383,245.978 121.256,245.600 121.256 C 245.270 121.256,244.640 121.411,244.200 121.600 M241.000 122.400 L 240.200 122.744 241.000 122.766 C 241.440 122.778,242.070 122.613,242.400 122.400 C 243.195 121.886,242.196 121.886,241.000 122.400 M231.347 125.767 C 227.224 127.456,218.504 131.808,217.196 132.830 C 216.648 133.257,218.630 132.360,221.600 130.837 C 224.570 129.313,228.800 127.307,231.000 126.380 C 233.200 125.453,235.075 124.628,235.167 124.547 C 235.635 124.134,234.271 124.570,231.347 125.767 M189.778 127.300 C 189.627 127.795,188.712 129.787,187.746 131.727 C 186.780 133.667,186.152 135.153,186.351 135.030 C 187.066 134.589,190.769 126.400,190.254 126.400 C 190.144 126.400,189.930 126.805,189.778 127.300 M211.776 136.226 C 192.371 149.200,177.936 167.771,170.620 189.174 C 169.610 192.130,168.844 194.732,168.919 194.957 C 168.994 195.182,169.609 193.663,170.285 191.583 C 177.712 168.742,191.948 149.907,211.749 136.724 C 215.473 134.244,216.336 133.600,215.932 133.600 C 215.807 133.600,213.936 134.782,211.776 136.226 M155.308 135.656 C 148.058 140.698,146.692 140.923,121.600 141.204 L 100.200 141.443 121.600 141.406 C 141.034 141.373,143.239 141.303,145.600 140.639 C 149.366 139.582,154.652 136.974,157.167 134.935 C 158.105 134.174,156.598 134.759,155.308 135.656 M183.370 139.103 C 177.056 148.417,167.441 156.095,157.200 160.001 L 153.400 161.451 153.295 174.725 L 153.189 188.000 118.595 188.000 L 84.000 188.000 84.010 172.300 C 84.023 151.179,85.168 147.595,93.216 143.485 C 94.417 142.871,94.950 142.490,94.400 142.637 C 91.582 143.393,87.200 147.315,85.504 150.600 C 83.724 154.048,83.610 155.354,83.605 172.302 L 83.600 188.404 118.500 188.302 L 153.400 188.200 153.600 175.029 L 153.800 161.858 157.000 160.598 C 167.937 156.291,177.103 148.940,184.033 138.915 C 185.160 137.284,186.006 135.872,185.911 135.778 C 185.817 135.684,184.673 137.180,183.370 139.103 M96.200 142.000 C 95.136 142.457,96.803 142.457,98.600 142.000 L 99.800 141.695 98.400 141.675 C 97.630 141.665,96.640 141.811,96.200 142.000 M248.800 144.000 C 248.005 144.514,249.004 144.514,250.200 144.000 L 251.000 143.656 250.200 143.634 C 249.760 143.622,249.130 143.787,248.800 144.000 M246.200 144.800 C 245.908 145.273,246.299 145.273,247.400 144.800 C 248.171 144.469,248.169 144.455,247.324 144.428 C 246.842 144.413,246.336 144.580,246.200 144.800 M239.200 147.358 C 233.075 150.023,223.208 155.637,223.202 156.461 C 223.201 156.604,224.505 155.857,226.100 154.800 C 229.719 152.404,236.478 148.880,240.300 147.398 C 241.895 146.780,243.200 146.212,243.200 146.137 C 243.200 145.780,241.948 146.163,239.200 147.358 M219.851 158.840 C 214.449 162.825,206.634 171.029,202.934 176.600 C 201.240 179.150,200.277 180.875,201.481 179.202 C 208.260 169.786,214.445 163.257,221.829 157.722 C 222.473 157.239,222.910 156.837,222.800 156.828 C 222.690 156.819,221.363 157.725,219.851 158.840 M264.200 165.211 C 262.969 165.453,263.384 165.512,266.000 165.463 L 269.400 165.400 269.400 176.900 C 269.400 183.225,269.538 188.400,269.706 188.400 C 269.874 188.400,269.964 183.135,269.906 176.700 L 269.800 165.000 267.800 164.948 C 266.700 164.919,265.080 165.038,264.200 165.211 M258.800 166.013 C 258.154 166.229,258.580 166.266,260.000 166.119 C 261.210 165.994,262.275 165.826,262.367 165.746 C 262.687 165.465,259.791 165.683,258.800 166.013 M255.400 166.800 C 254.896 167.017,254.822 167.144,255.200 167.144 C 255.530 167.144,256.160 166.989,256.600 166.800 C 257.104 166.583,257.178 166.456,256.800 166.456 C 256.470 166.456,255.840 166.611,255.400 166.800 M252.400 167.600 C 251.867 167.945,251.867 167.988,252.400 167.988 C 252.730 167.988,253.270 167.813,253.600 167.600 C 254.133 167.255,254.133 167.212,253.600 167.212 C 253.270 167.212,252.730 167.387,252.400 167.600 M244.272 171.025 C 235.590 175.421,228.440 181.331,223.254 188.400 L 221.933 190.200 223.466 188.410 C 230.949 179.674,238.235 173.999,246.800 170.234 C 249.708 168.956,249.980 168.793,249.167 168.817 C 248.855 168.826,246.652 169.820,244.272 171.025 M199.908 181.300 C 199.033 182.649,198.248 184.256,198.687 183.800 C 199.248 183.217,200.898 180.400,200.679 180.400 C 200.576 180.400,200.229 180.805,199.908 181.300 M195.842 188.839 C 193.820 193.090,191.979 197.964,192.016 198.966 C 192.025 199.205,192.706 197.600,193.529 195.400 C 194.353 193.200,195.770 189.870,196.679 188.000 C 197.588 186.130,198.259 184.527,198.171 184.439 C 198.083 184.350,197.035 186.330,195.842 188.839 M265.900 188.682 C 266.395 188.778,267.205 188.778,267.700 188.682 C 268.195 188.587,267.790 188.509,266.800 188.509 C 265.810 188.509,265.405 188.587,265.900 188.682 M262.900 189.076 C 263.285 189.176,263.915 189.176,264.300 189.076 C 264.685 188.975,264.370 188.893,263.600 188.893 C 262.830 188.893,262.515 188.975,262.900 189.076 M258.800 190.018 C 258.362 190.315,258.524 190.352,259.400 190.156 C 260.871 189.827,261.190 189.598,260.167 189.606 C 259.745 189.609,259.130 189.795,258.800 190.018 M253.800 192.039 C 242.986 197.545,235.877 208.115,234.927 220.100 L 234.681 223.200 223.281 223.200 L 211.881 223.200 212.082 218.500 C 212.228 215.061,212.186 214.321,211.924 215.744 C 211.728 216.813,211.619 218.973,211.683 220.544 L 211.800 223.400 223.400 223.400 L 235.000 223.400 235.094 222.000 C 235.991 208.614,242.877 198.011,254.429 192.228 C 256.438 191.223,257.838 190.402,257.541 190.405 C 257.243 190.408,255.560 191.143,253.800 192.039 M219.255 194.112 C 216.895 197.930,213.165 207.223,213.218 209.153 C 213.227 209.509,213.949 207.651,214.822 205.025 C 215.695 202.399,217.304 198.574,218.399 196.525 C 220.373 192.830,220.813 191.591,219.255 194.112 M168.229 197.029 C 168.081 197.615,168.038 198.172,168.132 198.266 C 168.227 198.360,168.424 197.958,168.571 197.371 C 168.719 196.785,168.762 196.228,168.668 196.134 C 168.573 196.040,168.376 196.442,168.229 197.029 M167.429 200.229 C 167.281 200.815,167.238 201.372,167.332 201.466 C 167.427 201.560,167.624 201.158,167.771 200.571 C 167.919 199.985,167.962 199.428,167.868 199.334 C 167.773 199.240,167.576 199.642,167.429 200.229 M191.449 200.215 C 191.312 200.573,191.215 201.166,191.234 201.533 C 191.253 201.900,191.427 201.669,191.621 201.020 C 191.998 199.758,191.865 199.133,191.449 200.215 M190.248 205.230 C 189.891 206.808,189.613 208.481,189.630 208.949 C 189.646 209.417,190.005 208.194,190.428 206.232 C 190.851 204.269,191.129 202.596,191.046 202.513 C 190.963 202.430,190.604 203.653,190.248 205.230 M166.578 204.178 C 166.427 204.981,166.394 205.727,166.504 205.837 C 166.614 205.947,166.827 205.381,166.978 204.578 C 167.128 203.775,167.162 203.028,167.052 202.918 C 166.942 202.808,166.728 203.375,166.578 204.178 M165.872 208.604 C 165.727 209.482,165.630 210.920,165.655 211.800 C 165.689 212.967,165.798 212.648,166.057 210.621 C 166.445 207.597,166.300 206.014,165.872 208.604 M189.053 211.236 C 188.914 211.931,188.824 213.332,188.854 214.350 C 188.897 215.809,188.975 215.566,189.222 213.201 C 189.553 210.031,189.475 209.125,189.053 211.236 M212.676 210.810 C 212.530 211.355,212.427 212.250,212.446 212.800 C 212.471 213.518,212.584 213.357,212.849 212.227 C 213.255 210.495,213.100 209.225,212.676 210.810 M276.713 211.928 C 276.335 212.078,278.405 212.200,281.313 212.200 C 310.064 212.200,313.208 253.468,284.800 257.959 C 282.675 258.295,282.657 258.308,284.258 258.353 C 288.207 258.465,294.076 255.640,298.129 251.677 C 310.949 239.142,304.988 216.822,287.582 212.190 C 285.359 211.598,277.994 211.421,276.713 211.928 M271.707 213.708 C 255.026 222.352,253.787 244.619,269.409 254.989 C 271.864 256.618,273.078 257.174,272.642 256.468 C 272.483 256.211,272.174 256.000,271.954 256.000 C 271.101 256.000,266.837 252.753,264.883 250.614 C 254.093 238.809,258.518 219.523,273.423 213.396 C 274.730 212.859,275.440 212.418,275.000 212.417 C 274.560 212.417,273.078 212.997,271.707 213.708 M164.997 217.704 C 164.844 219.741,164.782 221.856,164.860 222.404 L 165.000 223.400 176.700 223.506 C 187.664 223.605,188.398 223.568,188.368 222.906 C 188.350 222.487,188.255 222.404,188.135 222.700 C 187.980 223.084,185.278 223.200,176.527 223.200 L 165.121 223.200 165.408 218.600 C 165.567 216.070,165.601 214.000,165.485 214.000 C 165.369 214.000,165.150 215.667,164.997 217.704 M188.524 218.600 C 188.526 219.920,188.601 220.412,188.690 219.693 C 188.779 218.974,188.777 217.894,188.686 217.293 C 188.595 216.692,188.522 217.280,188.524 218.600 M206.917 241.294 C 206.702 241.572,206.627 242.610,206.752 243.600 L 206.978 245.400 207.189 243.400 L 207.400 241.400 218.156 241.400 C 229.900 241.400,229.249 241.266,229.825 243.800 C 229.976 244.460,230.172 244.805,230.261 244.566 C 230.350 244.327,230.192 243.427,229.910 242.566 L 229.397 241.000 218.353 240.894 C 209.816 240.812,207.219 240.902,206.917 241.294 M230.412 245.600 C 230.412 245.930,230.587 246.470,230.800 246.800 C 231.145 247.333,231.188 247.333,231.188 246.800 C 231.188 246.470,231.013 245.930,230.800 245.600 C 230.455 245.067,230.412 245.067,230.412 245.600 M207.268 246.400 C 207.287 248.050,207.917 249.756,207.932 248.200 C 207.938 247.540,207.789 246.640,207.600 246.200 C 207.287 245.473,207.257 245.491,207.268 246.400 M231.211 247.711 C 231.193 248.238,233.637 252.897,234.929 254.800 C 237.524 258.622,243.475 264.079,247.100 265.961 C 248.858 266.874,247.961 266.069,245.301 264.347 C 240.243 261.073,235.927 256.222,232.715 250.200 C 231.893 248.660,231.216 247.540,231.211 247.711 M208.034 250.000 C 208.046 250.330,208.211 250.960,208.400 251.400 L 208.744 252.200 208.766 251.400 C 208.778 250.960,208.613 250.330,208.400 250.000 C 208.055 249.467,208.015 249.467,208.034 250.000 M209.843 255.600 C 211.424 262.003,220.197 274.154,227.455 279.992 C 231.784 283.475,240.054 288.437,241.446 288.387 C 241.641 288.380,240.175 287.525,238.188 286.487 C 226.262 280.255,216.611 270.217,211.507 258.737 C 210.985 257.562,210.341 256.150,210.076 255.600 L 209.596 254.600 209.843 255.600 M273.600 257.200 C 273.930 257.413,274.470 257.588,274.800 257.588 C 275.333 257.588,275.333 257.545,274.800 257.200 C 274.470 256.987,273.930 256.812,273.600 256.812 C 273.067 256.812,273.067 256.855,273.600 257.200 M276.200 258.000 C 276.640 258.189,277.720 258.336,278.600 258.326 L 280.200 258.308 278.600 257.977 C 277.720 257.795,276.640 257.648,276.200 257.651 L 275.400 257.656 276.200 258.000 M254.426 268.939 C 255.462 270.066,261.570 270.400,281.200 270.405 C 302.759 270.410,303.435 270.462,307.402 272.444 C 310.138 273.810,312.636 276.529,314.320 279.972 L 315.800 283.000 315.921 299.502 L 316.041 316.004 281.521 315.902 L 247.000 315.800 246.800 303.005 L 246.600 290.210 245.468 289.668 C 244.006 288.967,241.743 288.318,242.227 288.737 C 242.432 288.915,243.365 289.301,244.300 289.594 C 245.235 289.888,246.039 290.144,246.086 290.164 C 246.133 290.184,246.268 296.050,246.386 303.200 L 246.600 316.200 281.500 316.302 L 316.400 316.404 316.400 300.438 C 316.400 280.374,315.791 277.989,309.485 273.347 C 304.983 270.033,304.725 270.001,282.058 269.992 C 263.860 269.985,260.537 269.857,255.800 268.988 C 254.920 268.826,254.302 268.804,254.426 268.939 " stroke="none" fill="#b49cf4" fill-rule="evenodd"></path><path id="path4" d="M113.005 83.421 C 110.474 84.059,105.200 86.333,105.200 86.786 C 105.200 86.933,106.415 86.454,107.900 85.720 C 115.097 82.166,124.414 82.583,130.564 86.734 C 131.574 87.415,132.400 87.837,132.400 87.671 C 132.400 87.125,128.252 84.870,125.600 83.974 C 122.224 82.832,116.359 82.575,113.005 83.421 M101.394 90.141 C 99.798 91.758,98.272 93.513,98.004 94.041 C 97.736 94.568,98.106 94.280,98.825 93.400 C 99.545 92.520,101.212 90.765,102.531 89.500 C 103.850 88.235,104.786 87.200,104.613 87.200 C 104.439 87.200,102.991 88.523,101.394 90.141 M135.335 90.762 C 136.923 92.511,138.590 94.887,139.406 96.562 C 140.165 98.123,140.790 99.197,140.793 98.949 C 140.818 97.288,137.395 92.198,134.373 89.400 C 133.383 88.483,133.793 89.064,135.335 90.762 M96.178 97.411 C 95.640 98.628,95.213 99.933,95.229 100.311 C 95.245 100.690,95.586 100.079,95.987 98.953 C 96.388 97.827,96.921 96.522,97.172 96.053 C 97.423 95.584,97.522 95.200,97.392 95.200 C 97.262 95.200,96.716 96.195,96.178 97.411 M140.846 100.000 C 140.865 100.330,141.024 101.050,141.200 101.600 L 141.520 102.600 141.554 101.600 C 141.573 101.050,141.413 100.330,141.200 100.000 C 140.855 99.467,140.816 99.467,140.846 100.000 M94.652 102.100 C 94.328 103.310,94.387 110.425,94.728 111.285 C 94.878 111.662,95.000 109.547,95.000 106.585 C 95.000 100.733,95.004 100.786,94.652 102.100 M141.694 106.600 C 141.694 110.074,141.738 110.337,142.028 108.600 C 142.213 107.500,142.213 105.700,142.029 104.600 C 141.738 102.863,141.694 103.126,141.694 106.600 M141.254 111.667 C 141.225 112.034,141.084 112.664,140.941 113.067 C 140.741 113.633,140.795 113.696,141.175 113.346 C 141.446 113.097,141.587 112.467,141.488 111.946 C 141.390 111.426,141.284 111.300,141.254 111.667 M176.500 112.299 C 179.525 112.367,184.475 112.367,187.500 112.299 C 190.525 112.231,188.050 112.175,182.000 112.175 C 175.950 112.175,173.475 112.231,176.500 112.299 M95.234 113.000 C 95.222 113.440,95.387 114.070,95.600 114.400 C 96.114 115.195,96.114 114.196,95.600 113.000 L 95.256 112.200 95.234 113.000 M169.868 112.700 C 169.482 113.344,168.398 118.131,168.593 118.326 C 168.707 118.440,168.800 118.411,168.800 118.262 C 168.800 118.112,169.149 116.732,169.575 115.195 C 170.274 112.671,170.369 111.862,169.868 112.700 M193.665 113.200 C 193.625 113.750,193.499 114.920,193.385 115.800 C 193.206 117.194,193.234 117.273,193.608 116.414 C 193.845 115.872,193.971 114.702,193.889 113.814 C 193.807 112.926,193.706 112.650,193.665 113.200 M140.446 114.267 C 140.421 114.524,140.284 115.064,140.141 115.467 C 139.940 116.036,139.994 116.097,140.379 115.742 C 140.652 115.491,140.789 114.951,140.684 114.542 C 140.579 114.134,140.472 114.010,140.446 114.267 M97.592 118.700 C 98.570 120.440,100.800 123.093,100.800 122.516 C 100.800 122.300,100.421 121.781,99.959 121.362 C 99.496 120.944,98.669 119.836,98.121 118.900 C 96.892 116.804,96.427 116.627,97.592 118.700 M269.199 118.151 C 269.749 118.472,270.274 118.659,270.366 118.567 C 270.614 118.319,270.314 118.130,269.200 117.833 L 268.200 117.567 269.199 118.151 M137.853 119.592 C 137.268 120.476,136.926 121.198,137.094 121.195 C 137.479 121.189,139.317 118.384,139.087 118.154 C 138.994 118.060,138.438 118.707,137.853 119.592 M192.849 118.400 C 192.816 118.730,192.689 119.450,192.567 120.000 C 192.375 120.864,192.407 120.903,192.799 120.288 C 193.048 119.897,193.175 119.177,193.081 118.688 C 192.986 118.200,192.882 118.070,192.849 118.400 M263.100 118.293 C 264.035 118.377,265.565 118.377,266.500 118.293 C 267.435 118.209,266.670 118.140,264.800 118.140 C 262.930 118.140,262.165 118.209,263.100 118.293 M255.400 118.797 C 254.739 118.964,255.728 119.008,257.600 118.894 C 259.470 118.781,261.075 118.624,261.167 118.544 C 261.474 118.278,256.614 118.491,255.400 118.797 M167.242 120.985 C 166.142 123.637,163.180 127.874,160.448 130.700 C 159.331 131.855,158.575 132.800,158.768 132.800 C 160.310 132.800,169.225 119.892,168.313 118.979 C 168.219 118.886,167.737 119.789,167.242 120.985 M250.600 119.603 C 250.085 119.826,250.513 119.867,251.800 119.718 C 252.900 119.591,253.875 119.423,253.967 119.344 C 254.314 119.045,251.364 119.272,250.600 119.603 M246.800 120.406 C 246.378 120.682,246.615 120.723,247.600 120.542 C 249.325 120.225,249.651 119.998,248.367 120.006 C 247.835 120.009,247.130 120.189,246.800 120.406 M135.178 123.100 L 133.800 124.600 135.300 123.222 C 136.125 122.463,136.800 121.788,136.800 121.722 C 136.800 121.416,136.462 121.704,135.178 123.100 M102.812 124.715 C 102.829 125.100,106.378 127.755,106.591 127.542 C 106.684 127.449,105.869 126.711,104.780 125.901 C 103.691 125.092,102.806 124.558,102.812 124.715 M131.594 126.041 C 130.223 127.125,127.790 128.378,125.405 129.228 C 124.302 129.620,123.691 129.955,124.047 129.971 C 125.026 130.015,128.774 128.400,130.800 127.060 C 133.028 125.587,132.969 125.636,132.761 125.427 C 132.666 125.332,132.141 125.609,131.594 126.041 M227.672 126.672 C 226.502 127.225,225.619 127.752,225.710 127.843 C 225.800 127.934,227.028 127.474,228.437 126.822 C 229.847 126.170,230.730 125.643,230.400 125.652 C 230.070 125.660,228.843 126.119,227.672 126.672 M111.200 129.582 C 111.530 129.805,112.145 129.991,112.567 129.994 C 113.590 130.002,113.271 129.773,111.800 129.444 C 110.924 129.248,110.762 129.285,111.200 129.582 M115.000 130.463 C 116.910 130.810,120.537 130.805,122.183 130.452 C 122.833 130.312,121.123 130.192,118.383 130.185 C 115.142 130.176,113.959 130.273,115.000 130.463 M217.776 131.827 C 216.469 132.611,215.220 133.454,215.000 133.700 C 214.780 133.946,215.140 133.808,215.800 133.394 C 216.460 132.980,217.765 132.211,218.700 131.686 C 220.166 130.863,220.733 130.400,220.276 130.400 C 220.209 130.400,219.084 131.042,217.776 131.827 M186.620 135.100 C 183.498 141.023,175.204 150.264,169.775 153.869 C 168.572 154.668,167.676 155.409,167.784 155.517 C 168.515 156.249,177.579 147.993,182.241 142.347 C 184.444 139.680,188.826 132.400,188.229 132.400 C 188.127 132.400,187.403 133.615,186.620 135.100 M156.400 134.449 C 155.006 135.671,155.005 135.672,156.288 134.819 C 156.996 134.348,157.682 133.791,157.812 133.581 C 158.197 132.957,157.877 133.154,156.400 134.449 M210.977 136.100 C 206.315 139.170,204.432 140.557,204.415 140.933 C 204.407 141.117,204.895 140.886,205.500 140.420 C 206.105 139.954,208.220 138.475,210.200 137.133 C 212.180 135.791,213.971 134.537,214.180 134.347 C 215.085 133.521,213.946 134.145,210.977 136.100 M151.493 137.120 C 150.004 137.889,148.860 138.594,148.952 138.685 C 149.146 138.879,154.800 136.085,154.800 135.795 C 154.800 135.469,154.310 135.665,151.493 137.120 M143.600 140.000 C 142.836 140.494,143.658 140.494,145.200 140.000 L 146.200 139.680 145.200 139.646 C 144.650 139.627,143.930 139.787,143.600 140.000 M119.000 140.800 L 99.800 141.012 119.400 141.076 C 130.180 141.112,139.810 140.997,140.800 140.820 L 142.600 140.500 140.400 140.544 C 139.190 140.568,129.560 140.684,119.000 140.800 M95.800 141.600 C 95.508 142.073,95.899 142.073,97.000 141.600 C 97.771 141.269,97.769 141.255,96.924 141.228 C 96.442 141.213,95.936 141.380,95.800 141.600 M202.654 142.233 C 202.023 142.787,201.587 143.320,201.683 143.416 C 201.779 143.513,202.374 143.054,203.004 142.396 C 204.396 140.943,204.216 140.859,202.654 142.233 M266.200 141.805 L 262.200 142.291 265.851 142.345 C 268.658 142.387,269.617 142.261,270.000 141.800 C 270.274 141.470,270.431 141.227,270.349 141.259 C 270.267 141.292,268.400 141.537,266.200 141.805 M256.800 142.800 L 255.800 143.120 256.800 143.130 C 257.350 143.136,258.610 142.997,259.600 142.820 L 261.400 142.500 259.600 142.490 C 258.610 142.484,257.350 142.624,256.800 142.800 M252.600 143.600 L 251.800 143.944 252.600 143.932 C 253.040 143.926,253.850 143.776,254.400 143.600 L 255.400 143.280 254.400 143.268 C 253.850 143.262,253.040 143.411,252.600 143.600 M90.101 144.500 C 89.393 144.995,88.811 145.566,88.807 145.770 C 88.803 145.973,89.295 145.706,89.900 145.176 C 90.505 144.646,91.171 144.074,91.380 143.906 C 92.213 143.235,91.311 143.654,90.101 144.500 M199.374 145.307 L 197.800 146.999 199.396 145.599 C 200.273 144.830,201.068 144.155,201.162 144.100 C 201.256 144.045,201.247 143.913,201.141 143.807 C 201.035 143.701,200.240 144.376,199.374 145.307 M86.661 147.727 C 85.420 149.221,83.721 152.904,83.250 155.120 C 82.601 158.178,82.627 188.067,83.280 188.720 C 84.138 189.578,152.940 189.396,153.651 188.535 C 154.147 187.933,154.116 187.914,153.326 188.335 C 151.906 189.091,84.258 188.993,83.628 188.234 C 83.281 187.815,83.190 183.411,83.281 171.334 C 83.417 153.161,83.449 152.938,86.442 148.805 C 87.730 147.027,87.888 146.250,86.661 147.727 M193.963 150.305 C 192.104 152.227,190.322 154.160,190.005 154.600 C 189.687 155.040,191.253 153.513,193.486 151.206 C 195.718 148.899,197.500 146.966,197.444 146.911 C 197.388 146.855,195.822 148.382,193.963 150.305 M239.400 147.978 C 238.520 148.395,237.913 148.750,238.051 148.768 C 238.440 148.818,241.200 147.614,241.200 147.395 C 241.200 147.127,241.199 147.127,239.400 147.978 M233.354 150.834 C 229.273 152.933,225.600 155.134,225.600 155.481 C 225.600 155.590,226.275 155.274,227.100 154.778 C 230.542 152.711,233.918 150.852,235.700 150.043 C 236.745 149.568,237.600 149.095,237.600 148.990 C 237.600 148.665,237.413 148.746,233.354 150.834 M185.843 159.463 C 184.043 161.932,180.834 166.749,179.822 168.500 C 177.965 171.714,178.953 170.601,181.153 167.001 C 182.295 165.132,184.116 162.432,185.199 161.001 C 186.282 159.571,187.040 158.406,186.884 158.413 C 186.728 158.419,186.260 158.892,185.843 159.463 M218.000 161.048 C 215.094 163.536,208.764 169.697,208.936 169.869 C 208.997 169.930,210.566 168.500,212.424 166.690 C 214.281 164.881,216.970 162.373,218.400 161.117 C 219.830 159.862,220.910 158.832,220.800 158.829 C 220.690 158.825,219.430 159.824,218.000 161.048 M156.018 161.167 C 155.039 161.564,154.170 162.139,154.088 162.445 C 153.993 162.799,154.059 162.847,154.270 162.577 C 154.451 162.345,155.230 161.911,156.000 161.613 C 156.770 161.315,157.571 160.921,157.780 160.736 C 158.298 160.278,158.080 160.331,156.018 161.167 M266.307 164.690 C 267.026 164.779,268.106 164.777,268.707 164.686 C 269.308 164.595,268.720 164.522,267.400 164.524 C 266.080 164.526,265.588 164.601,266.307 164.690 M259.300 165.476 C 259.685 165.576,260.315 165.576,260.700 165.476 C 261.085 165.375,260.770 165.293,260.000 165.293 C 259.230 165.293,258.915 165.375,259.300 165.476 M253.600 166.688 C 253.050 166.787,252.443 167.019,252.251 167.203 C 252.059 167.387,252.568 167.388,253.383 167.204 C 254.197 167.020,254.969 166.764,255.098 166.635 C 255.343 166.390,255.243 166.394,253.600 166.688 M249.800 168.000 C 249.508 168.473,249.899 168.473,251.000 168.000 C 251.771 167.669,251.769 167.655,250.924 167.628 C 250.442 167.613,249.936 167.780,249.800 168.000 M245.300 169.789 C 243.705 170.538,242.400 171.241,242.400 171.352 C 242.400 171.464,243.705 170.962,245.300 170.239 C 246.895 169.515,248.470 168.819,248.800 168.693 C 249.333 168.489,249.333 168.461,248.800 168.446 C 248.470 168.436,246.895 169.041,245.300 169.789 M240.400 172.433 L 239.400 173.248 240.700 172.614 C 241.415 172.265,242.000 171.894,242.000 171.790 C 242.000 171.392,241.363 171.648,240.400 172.433 M204.955 174.900 C 203.915 176.275,202.892 177.625,202.683 177.900 C 202.473 178.175,202.392 178.400,202.503 178.400 C 202.613 178.400,203.719 177.050,204.961 175.400 C 206.203 173.750,207.135 172.400,207.033 172.400 C 206.931 172.400,205.996 173.525,204.955 174.900 M235.185 176.032 L 233.800 177.263 235.088 176.413 C 236.230 175.659,237.093 174.800,236.708 174.800 C 236.632 174.800,235.947 175.354,235.185 176.032 M231.200 179.084 C 228.399 181.458,225.056 184.896,223.959 186.531 C 223.491 187.229,224.036 186.774,225.169 185.520 C 226.303 184.266,228.709 181.884,230.515 180.227 C 234.189 176.855,234.560 176.236,231.200 179.084 M201.114 180.300 C 199.919 182.108,198.712 184.400,198.956 184.400 C 199.052 184.400,199.561 183.635,200.086 182.700 C 200.611 181.765,201.367 180.505,201.766 179.900 C 202.165 179.295,202.405 178.800,202.299 178.800 C 202.193 178.800,201.660 179.475,201.114 180.300 M172.201 183.057 C 170.866 186.245,169.182 191.346,169.326 191.765 C 169.409 192.004,169.773 191.187,170.135 189.949 C 170.497 188.711,171.330 186.381,171.985 184.771 C 172.640 183.160,173.102 181.769,173.012 181.678 C 172.921 181.588,172.556 182.208,172.201 183.057 M197.835 185.932 C 196.440 188.631,193.984 194.517,194.174 194.707 C 194.286 194.819,194.574 194.394,194.815 193.762 C 195.731 191.351,198.088 186.178,198.492 185.690 C 198.724 185.410,198.812 185.078,198.686 184.953 C 198.561 184.828,198.178 185.269,197.835 185.932 M269.773 188.378 C 269.568 188.579,268.770 188.817,268.000 188.907 C 266.649 189.066,266.659 189.074,268.276 189.136 C 269.198 189.171,270.071 189.008,270.216 188.773 C 270.568 188.205,270.245 187.917,269.773 188.378 M220.409 191.318 C 218.488 194.340,216.717 197.366,216.537 197.936 C 216.422 198.301,217.077 197.350,217.991 195.823 C 218.906 194.296,220.022 192.530,220.471 191.900 C 220.920 191.270,221.216 190.682,221.128 190.595 C 221.041 190.508,220.717 190.833,220.409 191.318 M168.629 193.429 C 168.481 194.015,168.438 194.572,168.532 194.666 C 168.627 194.760,168.824 194.358,168.971 193.771 C 169.119 193.185,169.162 192.628,169.068 192.534 C 168.973 192.440,168.776 192.842,168.629 193.429 M253.100 193.029 C 251.605 193.840,251.696 194.178,253.200 193.400 C 253.860 193.059,254.400 192.694,254.400 192.590 C 254.400 192.332,254.357 192.347,253.100 193.029 M248.000 196.550 C 246.790 197.512,245.171 198.997,244.402 199.850 L 243.004 201.400 244.802 199.750 C 245.791 198.843,247.029 197.763,247.554 197.350 C 249.369 195.922,250.599 194.825,250.400 194.813 C 250.290 194.806,249.210 195.588,248.000 196.550 M167.849 196.215 C 167.712 196.573,167.618 197.256,167.641 197.733 C 167.667 198.281,167.803 198.086,168.010 197.203 C 168.360 195.716,168.265 195.133,167.849 196.215 M167.049 199.415 C 166.912 199.773,166.821 200.546,166.846 201.133 C 166.880 201.932,166.970 201.798,167.204 200.600 C 167.535 198.900,167.462 198.340,167.049 199.415 M215.222 200.838 C 214.041 203.584,212.966 207.033,212.679 209.000 L 212.445 210.600 212.867 209.200 C 214.239 204.642,215.381 201.258,215.884 200.263 C 216.200 199.637,216.380 199.047,216.284 198.951 C 216.188 198.854,215.710 199.704,215.222 200.838 M242.329 202.300 C 241.175 203.657,239.915 205.648,240.096 205.829 C 240.196 205.930,240.938 205.019,241.743 203.806 C 243.209 201.599,243.448 200.984,242.329 202.300 M166.093 204.800 C 166.093 205.570,166.175 205.885,166.276 205.500 C 166.376 205.115,166.376 204.485,166.276 204.100 C 166.175 203.715,166.093 204.030,166.093 204.800 M190.229 207.429 C 190.081 208.015,190.051 208.584,190.161 208.694 C 190.271 208.804,190.481 208.415,190.629 207.829 C 190.776 207.242,190.806 206.673,190.696 206.563 C 190.586 206.453,190.376 206.842,190.229 207.429 M239.000 207.600 C 238.638 208.301,238.426 208.959,238.529 209.062 C 238.632 209.165,239.006 208.669,239.360 207.960 C 239.714 207.251,239.926 206.593,239.831 206.498 C 239.736 206.403,239.362 206.899,239.000 207.600 M165.314 210.200 C 165.317 211.300,165.395 211.703,165.487 211.095 C 165.579 210.486,165.577 209.586,165.482 209.095 C 165.387 208.603,165.311 209.100,165.314 210.200 M189.649 211.200 C 189.616 211.530,189.489 212.250,189.367 212.800 C 189.175 213.664,189.207 213.703,189.599 213.088 C 189.848 212.697,189.975 211.977,189.881 211.488 C 189.786 211.000,189.682 210.870,189.649 211.200 M211.855 212.655 C 211.713 213.686,211.674 214.608,211.769 214.702 C 211.863 214.796,212.065 214.039,212.218 213.018 C 212.371 211.998,212.410 211.076,212.304 210.971 C 212.198 210.865,211.996 211.623,211.855 212.655 M278.800 211.178 C 277.932 211.347,278.997 211.452,281.600 211.453 C 284.782 211.455,285.364 211.384,284.000 211.158 C 281.870 210.805,280.694 210.809,278.800 211.178 M237.000 212.400 C 236.850 212.873,236.817 213.350,236.927 213.460 C 237.037 213.570,237.250 213.273,237.400 212.800 C 237.550 212.327,237.583 211.850,237.473 211.740 C 237.363 211.630,237.150 211.927,237.000 212.400 M287.201 211.731 C 287.310 211.838,288.468 212.301,289.773 212.759 C 293.395 214.029,296.227 215.920,299.121 219.000 C 300.568 220.540,301.362 221.239,300.886 220.552 C 299.198 218.119,295.052 214.690,292.209 213.375 C 289.691 212.211,286.685 211.224,287.201 211.731 M164.901 213.800 C 164.905 214.680,164.987 214.993,165.083 214.495 C 165.179 213.998,165.175 213.278,165.075 212.895 C 164.975 212.513,164.896 212.920,164.901 213.800 M270.814 213.468 C 267.575 215.082,260.077 222.610,260.894 223.428 C 260.989 223.522,261.635 222.721,262.330 221.648 C 264.163 218.819,268.278 215.142,271.235 213.690 C 272.646 212.997,273.610 212.423,273.379 212.415 C 273.147 212.407,271.993 212.881,270.814 213.468 M236.200 215.200 C 236.048 215.891,236.014 216.547,236.124 216.657 C 236.234 216.767,236.448 216.291,236.600 215.600 C 236.752 214.909,236.786 214.253,236.676 214.143 C 236.566 214.033,236.352 214.509,236.200 215.200 M164.540 220.000 C 164.540 221.870,164.609 222.635,164.693 221.700 C 164.777 220.765,164.777 219.235,164.693 218.300 C 164.609 217.365,164.540 218.130,164.540 220.000 M211.089 220.300 C 210.739 224.595,210.186 224.401,222.762 224.395 C 228.613 224.392,233.850 224.257,234.400 224.095 C 234.950 223.933,230.000 223.710,223.400 223.600 L 211.400 223.400 211.541 220.500 C 211.720 216.843,211.383 216.694,211.089 220.300 M235.400 220.400 C 235.244 221.747,235.201 222.934,235.305 223.038 C 235.409 223.142,235.619 222.122,235.771 220.771 C 235.924 219.421,235.967 218.234,235.867 218.133 C 235.766 218.033,235.556 219.053,235.400 220.400 M188.787 220.800 L 188.600 223.400 176.600 223.600 C 170.000 223.710,165.050 223.933,165.600 224.095 C 166.150 224.257,171.387 224.392,177.238 224.395 C 189.718 224.401,189.337 224.525,189.108 220.545 L 188.973 218.200 188.787 220.800 M302.200 223.200 C 302.541 223.860,302.911 224.400,303.021 224.400 C 303.131 224.400,302.941 223.860,302.600 223.200 C 302.259 222.540,301.889 222.000,301.779 222.000 C 301.669 222.000,301.859 222.540,302.200 223.200 M303.233 224.800 C 303.215 224.910,303.552 225.900,303.982 227.000 C 304.411 228.100,304.766 228.730,304.771 228.400 C 304.779 227.833,303.301 224.375,303.233 224.800 M258.649 228.215 C 258.512 228.573,258.416 229.256,258.436 229.733 C 258.462 230.347,258.585 230.208,258.859 229.256 C 259.257 227.872,259.094 227.058,258.649 228.215 M305.000 235.000 C 305.000 238.174,305.122 240.462,305.272 240.085 C 305.421 239.708,305.544 237.420,305.544 235.000 C 305.544 232.580,305.421 230.292,305.272 229.915 C 305.122 229.538,305.000 231.826,305.000 235.000 M257.849 233.500 C 257.722 234.765,257.774 236.520,257.963 237.400 C 258.248 238.724,258.316 238.327,258.354 235.100 C 258.406 230.722,258.193 230.050,257.849 233.500 M258.446 240.400 C 258.427 240.950,258.587 241.670,258.800 242.000 C 259.294 242.764,259.294 241.942,258.800 240.400 L 258.480 239.400 258.446 240.400 M206.267 240.667 C 205.892 241.041,205.986 244.038,206.402 245.000 C 206.617 245.497,206.660 244.850,206.516 243.294 L 206.285 240.788 218.007 240.894 L 229.728 241.000 230.512 243.919 C 230.943 245.524,231.371 246.762,231.464 246.670 C 231.696 246.437,230.346 241.514,229.881 240.900 C 229.472 240.361,206.797 240.137,206.267 240.667 M260.004 245.038 C 259.996 245.920,263.159 250.255,265.230 252.200 C 267.332 254.174,267.327 254.164,264.879 251.485 C 263.515 249.991,261.861 247.831,261.203 246.685 C 260.546 245.538,260.006 244.797,260.004 245.038 M302.186 246.900 L 301.552 248.200 302.367 247.200 C 303.152 246.237,303.408 245.600,303.010 245.600 C 302.906 245.600,302.535 246.185,302.186 246.900 M206.846 247.200 C 206.827 247.750,206.987 248.470,207.200 248.800 C 207.694 249.564,207.694 248.742,207.200 247.200 L 206.880 246.200 206.846 247.200 M298.200 251.740 C 296.440 253.527,295.540 254.601,296.200 254.127 C 297.711 253.042,302.233 248.238,301.549 248.445 C 301.467 248.470,299.960 249.952,298.200 251.740 M207.628 250.676 C 207.613 251.158,207.780 251.664,208.000 251.800 C 208.473 252.092,208.473 251.701,208.000 250.600 C 207.669 249.829,207.655 249.831,207.628 250.676 M236.722 256.200 C 238.962 259.486,246.017 265.269,249.300 266.510 C 250.666 267.027,249.970 266.468,247.900 265.387 C 244.863 263.801,241.662 261.229,238.591 257.907 C 237.113 256.308,236.272 255.540,236.722 256.200 M292.000 256.400 C 291.230 256.822,290.744 257.174,290.920 257.183 C 291.344 257.205,293.600 256.032,293.600 255.790 C 293.600 255.528,293.577 255.537,292.000 256.400 M275.790 258.384 C 275.932 258.613,276.517 258.800,277.090 258.800 C 278.344 258.800,278.199 258.608,276.666 258.240 C 275.923 258.062,275.621 258.111,275.790 258.384 M286.200 258.400 L 285.000 258.705 286.076 258.753 C 286.668 258.779,287.264 258.620,287.400 258.400 C 287.536 258.180,287.592 258.021,287.524 258.047 C 287.456 258.073,286.860 258.232,286.200 258.400 M212.424 262.482 C 212.395 262.831,214.494 266.415,216.001 268.590 C 216.614 269.475,218.143 271.280,219.397 272.600 C 221.659 274.981,221.662 274.983,219.775 272.800 C 218.203 270.982,215.797 267.525,212.924 262.957 C 212.661 262.541,212.436 262.327,212.424 262.482 M250.825 267.148 C 253.868 269.135,256.209 269.332,280.000 269.599 C 295.551 269.773,303.028 269.998,303.974 270.319 C 304.729 270.576,305.430 270.704,305.531 270.603 C 305.632 270.502,305.464 270.341,305.157 270.245 C 304.851 270.149,304.150 269.933,303.600 269.764 C 303.050 269.594,292.520 269.344,280.200 269.208 C 256.516 268.946,256.982 268.981,251.000 267.004 C 250.355 266.791,250.321 266.819,250.825 267.148 M307.600 271.830 C 308.590 272.391,310.390 273.784,311.599 274.925 L 313.798 277.000 311.999 275.050 C 310.230 273.133,307.049 270.795,306.222 270.805 C 305.990 270.807,306.610 271.269,307.600 271.830 M314.580 278.802 C 316.643 282.598,316.800 284.144,316.800 300.604 C 316.800 311.921,316.677 315.963,316.320 316.320 C 315.954 316.686,307.633 316.800,281.307 316.800 L 246.774 316.800 246.412 315.900 C 246.055 315.010,246.050 315.009,246.025 315.857 C 246.011 316.329,246.285 316.824,246.633 316.957 C 248.137 317.535,316.285 317.221,316.772 316.634 C 317.119 316.215,317.210 311.811,317.119 299.734 C 316.986 281.995,316.838 280.817,314.378 277.916 C 313.789 277.223,313.839 277.439,314.580 278.802 M224.839 278.430 C 225.367 278.887,226.371 279.778,227.069 280.412 C 229.678 282.779,238.400 288.168,238.400 287.412 C 238.400 287.303,237.455 286.735,236.300 286.150 C 233.386 284.675,228.992 281.660,226.541 279.453 C 225.409 278.434,224.346 277.600,224.180 277.600 C 224.014 277.600,224.310 277.974,224.839 278.430 " stroke="none" fill="#8865ec" fill-rule="evenodd"></path></g></svg>